# xmcd
#
# Track frame offsets: 
#        150
#        34143
#        47154
#        97036
#        160833
#        188738
#        201113
#        218007
#        238961
#        255409
#        271390
#
# Disc length: 3828 seconds
#
# Revision: 0
# Processed by: cddbd v1.5.2PL0 Copyright (c) Steve Scherf et al.
# Submitted via: ExactAudioCopyFreeDBPlugin 1.0
#
DISCID=9a0ef20b
DTITLE=Jorge Mautner - Para Detonar a Cidade Ao Vivo
DYEAR=1972
DGENRE=Folk
TTITLE0=Quero Ser Locomotiva
TTITLE1=Chuva Princesa
TTITLE2=Estrela da Noite
TTITLE3=Medley I
TTITLE4=Sapo Cururu
TTITLE5=Olhar Bestial
TTITLE6=Louca Curtição
TTITLE7=Medley II
TTITLE8=Agô-Iê
TTITLE9=Boi de Carro
TTITLE10=Chave de um Perdido Paraíso
EXTD=
EXTT0=
EXTT1=
EXTT2=
EXTT3=
EXTT4=
EXTT5=
EXTT6=
EXTT7=
EXTT8=
EXTT9=
EXTT10=
PLAYORDER=
